<?xml version="1.0" encoding="UTF-8"?><svg id="uuid-eba50478-2425-46ea-adbc-6a70945989a0" xmlns="http://www.w3.org/2000/svg" width="136.63" height="66.14" viewBox="0 0 136.63 66.14"><defs><style>.uuid-e277da5a-6521-4dd7-b100-53b1d3fe9e5f{fill:#fff;stroke:#000;stroke-miterlimit:10;stroke-width:.5px;}</style></defs><g id="uuid-bf99d6ea-84af-42f0-bc5b-406143cf0b48"><path class="uuid-e277da5a-6521-4dd7-b100-53b1d3fe9e5f" d="M136.38,27.02c-4.65-.84-8.43-.74-12.24,2.27-.44.35-3.36,3.34-3.36,3.59v32.88h-8.4v-11.24c-5.28,13.35-25.38,14.63-35.04,5.5v5.26c-7.53,1.48-16.8.78-16.8-8.97v-30.49h-10.32v39.94h-7.68V25.82h-3.36c2.56,12.92.58,26.75,1.2,39.94h-8.16v-5.74C22.55,69.4-1.08,68.11.31,50.82c1.14-14.21,21.33-14.88,31.91-14.47-.32-5.4.44-10.28-5.96-11.88-5.63-1.41-16.31-.76-16.37,7.1H1.5c.75-16.28,24.47-17.23,34.8-10.04v-2.15h6.24c-1.19-12.31,3.52-21.83,17.52-18.41v7.17c-3.71-.96-9.84-.79-9.84,4.42v6.82h10.32V7.65h8.16v11.48h7.68v4.78c10.29-10.98,31.11-7.89,36,6.93v-11h8.4v5.98c3.73-5.23,8.91-8.41,15.6-6.93v8.13ZM105.18,37.06c-1.52-17.37-24.44-17.48-25.68,0h25.68ZM74.94,25.58h-6.24v27.62c0,5.3,2.65,6.8,7.68,5.86-7.7-9.08-7.53-23.6-1.44-33.48ZM32.22,42.32c-6.79.02-22.53-.86-23.29,8.72-.97,12.21,19.03,9.11,23.29,1.45v-10.16ZM112.38,43.52h-33.12c.11,6.31,3.07,13.26,9.65,15.14,5.92,1.68,15.23-.34,15.55-7.72h7.92v-7.41Z"/></g></svg>